<svg width="1024px" height="207px" xmlns="http://www.w3.org/2000/svg" xmlns:xlink="http://www.w3.org/1999/xlink">
<g style="">  <path d="M59.781882,45.158903 C58.590470,46.588598,57.121083,47.879275,55.373679,49.030974 C53.626274,50.182672,51.759757,51.175501,49.774070,52.009489 C47.788383,52.843478,45.763012,53.538458,43.697898,54.094450 C41.632783,54.650443,39.766265,55.087287,38.098288,55.404997 C39.289700,53.975302,40.699517,52.644912,42.327780,51.413786 C43.956044,50.182660,45.723279,49.110405,47.629538,48.196989 C49.535798,47.283573,51.521455,46.548880,53.586570,45.992888 C55.651684,45.436895,57.637341,45.158903,59.543601,45.158903 Z M76.938132,42.180388 C76.938132,39.638708,76.441718,37.474342,75.448874,35.687224 C74.456031,33.900105,73.145497,32.410862,71.517234,31.219450 C69.888970,30.028038,68.022452,29.154349,65.917624,28.598357 C63.812796,28.042364,61.608716,27.764372,59.305320,27.764372 C53.983678,27.764372,48.820970,28.777057,43.817038,30.802458 C38.813107,32.827859,34.365235,35.607779,30.473288,39.142302 C26.581342,42.676825,23.463860,46.826848,21.120749,51.592497 C18.777639,56.358146,17.606101,61.441428,17.606101,66.842497 C17.606101,71.846428,18.400364,76.850285,19.988913,81.854216 C21.577463,86.858147,23.880825,91.385446,26.899070,95.436247 C29.917314,99.487049,33.590780,102.763383,37.919577,105.265349 C42.248375,107.767314,47.113235,109.018278,52.514304,109.018278 C54.102854,109.018278,55.671523,108.899139,57.220359,108.660857 C58.769194,108.422574,60.179011,107.965873,61.449851,107.290739 C62.720690,106.615606,63.733376,105.682347,64.487937,104.490935 C65.242498,103.299522,65.619773,101.750710,65.619773,99.844450 C65.619773,97.620481,64.865223,95.595110,63.356101,93.768278 C61.846979,91.941446,59.861321,91.028044,57.399070,91.028044 C57.160787,91.028044,56.882795,91.067757,56.565085,91.147185 C56.247375,91.226612,55.929670,91.266325,55.611960,91.266325 C55.135395,91.425180,54.619124,91.544320,54.063132,91.623747 C53.507140,91.703175,52.990869,91.742888,52.514304,91.742888 C49.972625,91.742888,47.728832,91.206760,45.782859,90.134489 C43.836885,89.062218,42.149077,87.652402,40.719382,85.904997 C39.289687,84.157593,38.078436,82.191792,37.085593,80.007536 C36.092749,77.823280,35.278630,75.619201,34.643210,73.395232 C38.932294,72.998094,43.539019,72.104548,48.463523,70.714567 C53.388026,69.324587,57.974895,67.378642,62.224265,64.876677 C66.473635,62.374711,69.988248,59.237373,72.768210,55.464567 C75.548172,51.691762,76.938132,47.263747,76.938132,42.180388 Z M142.465476,39.321013 C142.465476,37.017616,141.591787,35.012102,139.844382,33.304411 C138.096977,31.596720,136.071607,30.742888,133.768210,30.742888 C131.226531,30.742888,129.181304,31.557007,127.632468,33.185271 C126.083632,34.813534,125.190086,36.858761,124.951804,39.321013 C124.872376,40.750707,124.336249,42.517942,123.343405,44.622771 C122.350562,46.727599,121.079741,49.011105,119.530905,51.473357 C117.982070,53.935608,116.274404,56.457393,114.407859,59.038786 C112.541313,61.620179,110.694652,64.102251,108.867820,66.485075 C107.040987,68.867900,105.353179,71.032266,103.804343,72.978239 C102.255507,74.924213,101.004543,76.453169,100.051413,77.565153 C100.051413,76.373741,100.091126,74.824929,100.170554,72.918669 C100.249981,71.012409,100.289695,68.907613,100.289695,66.604216 C100.289695,63.268262,100.150699,59.694079,99.872702,55.881560 C99.594706,52.069041,99.038722,48.554427,98.204734,45.337614 C97.370745,42.120801,96.199207,39.460021,94.690085,37.355192 C93.180963,35.250364,91.155593,34.197966,88.613913,34.197966 C86.151661,34.197966,84.066721,35.031942,82.359030,36.699919 C80.651340,38.367896,79.797507,40.353553,79.797507,42.656950 C79.797507,43.133515,79.837220,43.629929,79.916648,44.146208 C79.996075,44.662487,80.115215,45.158901,80.274070,45.635466 C81.386054,49.447985,82.081034,53.379586,82.359030,57.430388 C82.637027,61.481189,82.776023,65.531930,82.776023,69.582732 C82.776023,74.348380,82.557600,79.133814,82.120749,83.939177 C81.683898,88.744539,81.465476,93.609400,81.465476,98.533903 C81.465476,100.996155,82.339165,103.120809,84.086570,104.907927 C85.833974,106.695045,87.978484,107.588591,90.520163,107.588591 C92.744133,107.588591,95.583623,106.238344,99.038718,103.537810 C102.493813,100.837275,106.147423,97.342519,109.999655,93.053435 C113.851888,88.764351,117.704063,84.018630,121.556296,78.816130 C125.408529,73.613630,128.883429,68.470778,131.981101,63.387419 C135.078773,58.304060,137.600557,53.617909,139.546530,49.328825 C141.492504,45.039741,142.465476,41.703837,142.465476,39.321013 Z M190.002585,45.158903 C188.811173,46.588598,187.341787,47.879275,185.594382,49.030974 C183.846977,50.182672,181.980460,51.175501,179.994773,52.009489 C178.009086,52.843478,175.983715,53.538458,173.918601,54.094450 C171.853486,54.650443,169.986968,55.087287,168.318991,55.404997 C169.510404,53.975302,170.920220,52.644912,172.548484,51.413786 C174.176747,50.182660,175.943982,49.110405,177.850241,48.196989 C179.756501,47.283573,181.742158,46.548880,183.807273,45.992888 C185.872387,45.436895,187.858044,45.158903,189.764304,45.158903 Z M207.158835,42.180388 C207.158835,39.638708,206.662421,37.474342,205.669577,35.687224 C204.676734,33.900105,203.366200,32.410862,201.737937,31.219450 C200.109673,30.028038,198.243156,29.154349,196.138327,28.598357 C194.033499,28.042364,191.829420,27.764372,189.526023,27.764372 C184.204381,27.764372,179.041673,28.777057,174.037741,30.802458 C169.033810,32.827859,164.585938,35.607779,160.693991,39.142302 C156.802045,42.676825,153.684563,46.826848,151.341452,51.592497 C148.998342,56.358146,147.826804,61.441428,147.826804,66.842497 C147.826804,71.846428,148.621067,76.850285,150.209616,81.854216 C151.798166,86.858147,154.101528,91.385446,157.119773,95.436247 C160.138017,99.487049,163.811483,102.763383,168.140280,105.265349 C172.469078,107.767314,177.333938,109.018278,182.735007,109.018278 C184.323557,109.018278,185.892226,108.899139,187.441062,108.660857 C188.989898,108.422574,190.399714,107.965873,191.670554,107.290739 C192.941394,106.615606,193.954079,105.682347,194.708640,104.490935 C195.463201,103.299522,195.840476,101.750710,195.840476,99.844450 C195.840476,97.620481,195.085926,95.595110,193.576804,93.768278 C192.067682,91.941446,190.082025,91.028044,187.619773,91.028044 C187.381490,91.028044,187.103498,91.067757,186.785788,91.147185 C186.468078,91.226612,186.150373,91.266325,185.832663,91.266325 C185.356098,91.425180,184.839828,91.544320,184.283835,91.623747 C183.727843,91.703175,183.211572,91.742888,182.735007,91.742888 C180.193328,91.742888,177.949535,91.206760,176.003562,90.134489 C174.057588,89.062218,172.369780,87.652402,170.940085,85.904997 C169.510390,84.157593,168.299140,82.191792,167.306296,80.007536 C166.313453,77.823280,165.499333,75.619201,164.863913,73.395232 C169.152997,72.998094,173.759722,72.104548,178.684226,70.714567 C183.608730,69.324587,188.195598,67.378642,192.444968,64.876677 C196.694338,62.374711,200.208951,59.237373,202.988913,55.464567 C205.768875,51.691762,207.158835,47.263747,207.158835,42.180388 Z M281.264304,59.574919 C281.264304,56.715530,280.946599,53.756900,280.311179,50.698942 C279.675759,47.640984,278.643217,44.821351,277.213523,42.239958 C275.783828,39.658565,273.897454,37.533912,271.554343,35.865935 C269.211232,34.197958,266.332029,33.363982,262.916648,33.363982 C260.295541,33.363982,257.734043,33.900109,255.232077,34.972380 C252.730112,36.044651,250.327466,37.414754,248.024070,39.082732 C245.720673,40.750709,243.536450,42.557657,241.471335,44.503630 C239.406221,46.449603,237.460277,48.296264,235.633445,50.043669 C235.236307,49.884814,234.878889,49.805388,234.561179,49.805388 C234.243469,49.805388,233.886051,49.805388,233.488913,49.805388 C231.741509,49.805388,230.133126,50.262089,228.663718,51.175505 C227.194310,52.088921,226.102198,53.339885,225.387351,54.928435 C225.069641,55.722709,224.473944,57.112670,223.600241,59.098357 C222.726539,61.084044,221.713854,63.387406,220.562155,66.008513 C219.410457,68.629620,218.219063,71.369827,216.987937,74.229216 C215.756811,77.088605,214.624986,79.769242,213.592429,82.271208 C212.559872,84.773174,211.706039,86.937540,211.030905,88.764372 C210.355772,90.591204,210.018210,91.742885,210.018210,92.219450 C210.018210,93.410862,210.256489,94.522831,210.733054,95.555388 C211.209619,96.587945,211.845029,97.521204,212.639304,98.355192 C213.433579,99.189181,214.366838,99.844448,215.439109,100.321013 C216.511380,100.797578,217.643204,101.035857,218.834616,101.035857 C220.264311,101.035857,221.654271,100.638725,223.004538,99.844450 C224.354805,99.050175,225.387347,97.977921,226.102195,96.627653 C227.373034,94.641966,228.802707,92.259178,230.391257,89.479216 C231.979807,86.699254,233.707328,83.760481,235.573874,80.662810 C237.440420,77.565138,239.445934,74.407943,241.590476,71.191130 C243.735018,67.974317,245.939097,64.995831,248.202780,62.255583 C250.466464,59.515335,252.769826,57.152403,255.112937,55.166716 C257.456047,53.181029,259.818979,51.791069,262.201804,50.996794 C262.916651,52.664771,263.353496,54.511432,263.512351,56.536833 C263.671206,58.562234,263.969054,60.488321,264.405905,62.315153 C264.842757,64.141985,265.656876,65.670942,266.848288,66.902067 C268.039700,68.133193,270.065071,68.748747,272.924460,68.748747 C274.115872,68.748747,275.227840,68.490612,276.260398,67.974333 C277.292955,67.458054,278.186501,66.763074,278.941062,65.889372 C279.695623,65.015670,280.271463,64.042698,280.668601,62.970427 C281.065738,61.898156,281.264304,60.766331,281.264304,59.574919 Z M349.651023,72.203825 C349.651023,69.503291,348.697907,67.239642,346.791648,65.412810 C344.885388,63.585978,342.582026,62.672575,339.881491,62.672575 C337.895804,62.672575,335.493159,63.307986,332.673484,64.578825 C329.853808,65.849665,326.934892,67.338908,323.916648,69.046599 C320.898403,70.754290,317.959631,72.481811,315.100241,74.229216 C312.240852,75.976620,309.858063,77.326867,307.951804,78.279997 C308.507796,75.817745,309.242489,73.117251,310.155905,70.178435 C311.069321,67.239618,312.101863,64.280989,313.253562,61.302458 C314.405260,58.323928,315.676081,55.464581,317.066062,52.724333 C318.456043,49.984085,319.865859,47.621153,321.295554,45.635466 C321.772119,44.761764,322.169250,43.888074,322.486960,43.014372 C322.804670,42.140670,322.963523,41.227268,322.963523,40.274138 C322.963523,37.970741,322.129547,35.925514,320.461570,34.138396 C318.793592,32.351277,316.807935,31.457732,314.504538,31.457732 C312.359996,31.457732,310.275056,32.510130,308.249655,34.614958 C306.224255,36.719786,304.318024,39.440137,302.530905,42.776091 C300.743787,46.112045,299.075835,49.805368,297.526999,53.856169 C295.978163,57.906971,294.667630,61.878285,293.595359,65.770232 C292.523088,69.662178,291.669255,73.236361,291.033835,76.492888 C290.398415,79.749414,290.080710,82.211629,290.080710,83.879607 C290.080710,85.785866,290.318989,87.592814,290.795554,89.300505 C291.272119,91.008196,292.026669,92.517295,293.059226,93.827849 C294.091783,95.138402,295.362604,96.170944,296.871726,96.925505 C298.380848,97.680066,300.167939,98.057341,302.233054,98.057341 C304.059886,98.057341,305.985973,97.739636,308.011374,97.104216 C310.036775,96.468796,312.062145,95.674533,314.087546,94.721403 C316.112947,93.768274,318.058891,92.755588,319.925437,91.683317 C321.791982,90.611046,323.479791,89.638074,324.988913,88.764372 C324.353493,90.114639,323.241525,92.358432,321.652976,95.495817 C320.064426,98.633203,318.178052,102.326525,315.993796,106.575896 C313.809540,110.825266,311.387039,115.431991,308.726218,120.396208 C306.065397,125.360426,303.345047,130.344425,300.565085,135.348357 C297.785123,140.352288,295.005203,145.177435,292.225241,149.823942 C289.445280,154.470450,286.844069,158.580761,284.421530,162.154997 C281.998992,165.729234,279.794913,168.588580,277.809226,170.733122 C275.823539,172.877664,274.235013,173.949919,273.043601,173.949919 C272.884746,173.949919,272.626610,173.771210,272.269187,173.413786 C271.911763,173.056363,271.435205,172.659231,270.839499,172.222380 C270.243793,171.785529,269.509100,171.388397,268.635398,171.030974 C267.761695,170.673550,266.768867,170.494841,265.656882,170.494841 C263.353485,170.494841,261.367828,171.388387,259.699851,173.175505 C258.031874,174.962623,257.197898,177.007850,257.197898,179.311247 C257.197898,181.138079,257.714169,182.806031,258.746726,184.315153 C259.779283,185.824276,261.089817,187.095096,262.678366,188.127653 C264.266916,189.160211,265.994438,189.954474,267.860984,190.510466 C269.727529,191.066458,271.455051,191.344450,273.043601,191.344450 C273.520166,191.344450,273.996723,191.324594,274.473288,191.284880 C274.949853,191.245166,275.426411,191.145883,275.902976,190.987028 C279.159502,190.431036,282.217415,189.160215,285.076804,187.174528 C287.936193,185.188841,290.577117,182.825909,292.999655,180.085661 C295.422194,177.345413,297.626273,174.426497,299.611960,171.328825 C301.597647,168.231154,303.305312,165.292381,304.735007,162.512419 C306.244129,159.732457,308.408496,155.860426,311.228171,150.896208 C314.047847,145.931991,317.105759,140.451577,320.401999,134.454802 C323.698240,128.458027,327.093714,122.242920,330.588523,115.809294 C334.083332,109.375668,337.240527,103.279700,340.060202,97.521208 C342.879878,91.762716,345.183240,86.639720,346.970359,82.152067 C348.757477,77.664415,349.651023,74.348367,349.651023,72.203825 Z M396.711570,64.936247 C395.281875,66.604224,393.772775,68.570025,392.184226,70.833708 C390.595676,73.097391,388.967437,75.222045,387.299460,77.207732 C385.631483,79.193419,383.943674,80.881227,382.235984,82.271208 C380.528293,83.661189,378.840484,84.356169,377.172507,84.356169 L376.457663,84.356169 C376.854801,82.688192,377.549781,80.881244,378.542624,78.935271 C379.535468,76.989297,380.806288,75.122780,382.355124,73.335661 C383.903960,71.548543,385.770478,69.900447,387.954734,68.391325 C390.138989,66.882203,392.621061,65.730522,395.401023,64.936247 Z M438.172507,19.781950 C438.172507,18.193401,438.013654,16.565162,437.695945,14.897185 C437.378235,13.229208,436.842107,11.700251,436.087546,10.310271 C435.332985,8.920290,434.340156,7.788465,433.109030,6.914763 C431.877905,6.041060,430.309235,5.604216,428.402976,5.604216 C426.179006,5.604216,424.074210,6.597045,422.088523,8.582732 C420.102836,10.568419,418.295888,13.110060,416.667624,16.207732 C415.039361,19.305403,413.550118,22.740590,412.199851,26.513396 C410.849584,30.286201,409.658189,33.999380,408.625632,37.653044 C407.593075,41.306708,406.759099,44.662469,406.123679,47.720427 C405.488259,50.778385,405.011701,53.101604,404.693991,54.690153 C404.217427,52.466184,403.105458,50.639379,401.358054,49.209685 C399.610649,47.779990,397.624992,47.065153,395.401023,47.065153 C393.097626,47.065153,390.555984,47.839560,387.776023,49.388396 C384.996061,50.937231,382.196284,52.962602,379.376609,55.464567 C376.556933,57.966533,373.836583,60.806023,371.215476,63.983122 C368.594369,67.160221,366.251293,70.357129,364.186179,73.573942 C362.121064,76.790755,360.472969,79.908237,359.241843,82.926482 C358.010717,85.944726,357.395163,88.565793,357.395163,90.789763 C357.395163,92.616595,357.693012,94.383830,358.288718,96.091521 C358.884424,97.799211,359.718400,99.308311,360.790671,100.618864 C361.862942,101.929418,363.193332,102.981816,364.781882,103.776091 C366.370432,104.570366,368.117810,104.967497,370.024070,104.967497 C372.883459,104.967497,375.861945,104.173234,378.959616,102.584685 C382.057288,100.996135,385.095344,99.070048,388.073874,96.806364 C391.052405,94.542681,393.832325,92.140036,396.413718,89.598357 C398.995111,87.056677,401.199191,84.832741,403.026023,82.926482 C403.184878,84.594459,403.502583,86.639686,403.979148,89.062224 C404.455713,91.484762,405.170549,93.807981,406.123679,96.031950 C407.076809,98.255920,408.327773,100.162151,409.876609,101.750700 C411.425444,103.339250,413.272106,104.133513,415.416648,104.133513 C417.720045,104.133513,419.646132,103.239967,421.194968,101.452849 C422.743804,99.665730,423.518210,97.660217,423.518210,95.436247 C423.518210,94.324262,423.260075,93.192438,422.743796,92.040739 C422.227517,90.889041,421.671533,89.578507,421.075827,88.109099 C420.480121,86.639690,419.924137,84.951882,419.407859,83.045622 C418.891580,81.139363,418.633445,78.915427,418.633445,76.373747 C418.633445,74.070350,418.732727,71.707418,418.931296,69.284880 C419.129865,66.862342,419.427713,64.499410,419.824851,62.196013 C421.889965,59.416051,423.994762,56.298569,426.139304,52.843474 C428.283846,49.388378,430.249647,45.814195,432.036765,42.120817 C433.823883,38.427440,435.293269,34.674547,436.444968,30.862028 C437.596666,27.049509,438.172507,23.356187,438.172507,19.781950 Z M473.676413,58.026091 C472.485001,58.264373,471.373033,58.939497,470.340476,60.051482 C469.307919,61.163466,468.275377,62.474000,467.242820,63.983122 C466.210262,65.492244,465.157864,67.100627,464.085593,68.808317 C463.013322,70.516008,461.881497,72.164104,460.690085,73.752653 C459.498673,75.341203,458.207996,76.731163,456.818015,77.922575 C455.428034,79.113987,453.899078,79.908250,452.231101,80.305388 C452.548811,79.034548,453.104795,77.485735,453.899070,75.658903 C454.693344,73.832071,455.626603,71.886127,456.698874,69.821013 C457.771145,67.755898,458.982396,65.670958,460.332663,63.566130 C461.682930,61.461302,463.033177,59.495501,464.383445,57.668669 C465.733712,55.841837,467.064102,54.253311,468.374655,52.903044 C469.685209,51.552777,470.896460,50.599661,472.008445,50.043669 C472.485009,50.679089,472.882141,51.453495,473.199851,52.366911 C473.517561,53.280327,473.676413,54.134160,473.676413,54.928435 Z M489.879538,55.404997 C489.879538,52.863318,489.502263,50.242250,488.747702,47.541716 C487.993141,44.841182,486.881173,42.378967,485.411765,40.154997 C483.942356,37.931028,482.115552,36.084366,479.931296,34.614958 C477.747040,33.145550,475.185543,32.410857,472.246726,32.410857 C469.466764,32.410857,466.627274,33.324259,463.728171,35.151091 C460.829068,36.977923,458.029291,39.380568,455.328757,42.359099 C452.628223,45.337629,450.086581,48.673533,447.703757,52.366911 C445.320933,56.060289,443.235993,59.753611,441.448874,63.446989 C439.661756,67.140367,438.251939,70.694694,437.219382,74.110075 C436.186825,77.525457,435.670554,80.384803,435.670554,82.688200 C435.670554,87.374422,437.100227,91.067744,439.959616,93.768278 C442.819006,96.468813,446.591754,97.819060,451.277976,97.819060 C454.455075,97.819060,457.473274,97.064510,460.332663,95.555388 C463.192053,94.046266,465.773407,92.219461,468.076804,90.074919 C468.553369,91.266331,469.228492,92.636435,470.102195,94.185271 C470.975897,95.734106,471.948869,97.163780,473.021140,98.474333 C474.093411,99.784887,475.304662,100.896855,476.654929,101.810271 C478.005196,102.723687,479.395156,103.180388,480.824851,103.180388 C482.016263,103.180388,483.108374,102.922252,484.101218,102.405974 C485.094061,101.889695,485.947894,101.214572,486.662741,100.380583 C487.377589,99.546595,487.953429,98.613336,488.390280,97.580778 C488.827132,96.548221,489.045554,95.475966,489.045554,94.363982 C489.045554,92.457722,488.688136,91.047905,487.973288,90.134489 C487.258441,89.221073,486.484035,88.248101,485.650046,87.215544 C484.816058,86.182987,484.041651,84.892310,483.326804,83.343474 C482.611957,81.794638,482.254538,79.471419,482.254538,76.373747 C482.254538,74.864625,482.413391,73.355526,482.731101,71.846403 C483.048811,70.337281,483.207663,68.828182,483.207663,67.319060 L483.207663,66.604216 L483.207663,65.412810 C485.669915,64.936245,487.397437,63.724994,488.390280,61.779021 C489.383124,59.833047,489.879538,57.708394,489.879538,55.404997 Z M558.623679,72.203825 C558.623679,69.503291,557.670563,67.239642,555.764304,65.412810 C553.858044,63.585978,551.554682,62.672575,548.854148,62.672575 C546.868461,62.672575,544.465815,63.307986,541.646140,64.578825 C538.826464,65.849665,535.907548,67.338908,532.889304,69.046599 C529.871060,70.754290,526.932287,72.481811,524.072898,74.229216 C521.213508,75.976620,518.830720,77.326867,516.924460,78.279997 C517.480453,75.817745,518.215146,73.117251,519.128562,70.178435 C520.041978,67.239618,521.074519,64.280989,522.226218,61.302458 C523.377916,58.323928,524.648737,55.464581,526.038718,52.724333 C527.428699,49.984085,528.838515,47.621153,530.268210,45.635466 C530.744775,44.761764,531.141906,43.888074,531.459616,43.014372 C531.777326,42.140670,531.936179,41.227268,531.936179,40.274138 C531.936179,37.970741,531.102203,35.925514,529.434226,34.138396 C527.766249,32.351277,525.780591,31.457732,523.477195,31.457732 C521.332653,31.457732,519.247712,32.510130,517.222312,34.614958 C515.196911,36.719786,513.290680,39.440137,511.503562,42.776091 C509.716443,46.112045,508.048491,49.805368,506.499655,53.856169 C504.950820,57.906971,503.640286,61.878285,502.568015,65.770232 C501.495744,69.662178,500.641911,73.236361,500.006491,76.492888 C499.371072,79.749414,499.053366,82.211629,499.053366,83.879607 C499.053366,85.785866,499.291645,87.592814,499.768210,89.300505 C500.244775,91.008196,500.999325,92.517295,502.031882,93.827849 C503.064439,95.138402,504.335260,96.170944,505.844382,96.925505 C507.353504,97.680066,509.140596,98.057341,511.205710,98.057341 C513.032542,98.057341,514.958630,97.739636,516.984030,97.104216 C519.009431,96.468796,521.034802,95.674533,523.060202,94.721403 C525.085603,93.768274,527.031547,92.755588,528.898093,91.683317 C530.764639,90.611046,532.452447,89.638074,533.961570,88.764372 C533.326150,90.114639,532.214182,92.358432,530.625632,95.495817 C529.037082,98.633203,527.150708,102.326525,524.966452,106.575896 C522.782197,110.825266,520.359695,115.431991,517.698874,120.396208 C515.038054,125.360426,512.317703,130.344425,509.537741,135.348357 C506.757780,140.352288,503.977859,145.177435,501.197898,149.823942 C498.417936,154.470450,495.816725,158.580761,493.394187,162.154997 C490.971649,165.729234,488.767569,168.588580,486.781882,170.733122 C484.796195,172.877664,483.207669,173.949919,482.016257,173.949919 C481.857402,173.949919,481.599267,173.771210,481.241843,173.413786 C480.884419,173.056363,480.407862,172.659231,479.812155,172.222380 C479.216449,171.785529,478.481756,171.388397,477.608054,171.030974 C476.734352,170.673550,475.741523,170.494841,474.629538,170.494841 C472.326141,170.494841,470.340484,171.388387,468.672507,173.175505 C467.004530,174.962623,466.170554,177.007850,466.170554,179.311247 C466.170554,181.138079,466.686825,182.806031,467.719382,184.315153 C468.751939,185.824276,470.062473,187.095096,471.651023,188.127653 C473.239572,189.160211,474.967094,189.954474,476.833640,190.510466 C478.700186,191.066458,480.427707,191.344450,482.016257,191.344450 C482.492822,191.344450,482.969380,191.324594,483.445945,191.284880 C483.922509,191.245166,484.399067,191.145883,484.875632,190.987028 C488.132159,190.431036,491.190071,189.160215,494.049460,187.174528 C496.908849,185.188841,499.549774,182.825909,501.972312,180.085661 C504.394850,177.345413,506.598929,174.426497,508.584616,171.328825 C510.570303,168.231154,512.277969,165.292381,513.707663,162.512419 C515.216785,159.732457,517.381152,155.860426,520.200827,150.896208 C523.020503,145.931991,526.078415,140.451577,529.374655,134.454802 C532.670896,128.458027,536.066370,122.242920,539.561179,115.809294 C543.055988,109.375668,546.213183,103.279700,549.032859,97.521208 C551.852534,91.762716,554.155897,86.639720,555.943015,82.152067 C557.730133,77.664415,558.623679,74.348367,558.623679,72.203825 Z " style="fill: rgba(116, 42, 42, 1.000000); " fill="#883a37" stroke="none" />
  <path d="M567.007717,136.903407 L567.007717,24.862391 L546.490139,24.862391 L546.490139,6.170985 L607.183498,6.170985 C619.859343,6.170985,629.921091,7.155676,637.369045,9.125086 C644.816999,11.094497,650.975792,15.248102,655.845608,21.586024 C660.715424,27.923946,663.150295,35.819375,663.150295,45.272547 C663.150295,65.038271,652.873705,77.463277,632.320217,82.547938 L658.745998,136.903407 L677.007717,136.903407 L677.007717,155.594813 L644.673733,155.594813 L610.620998,85.770594 L589.566311,85.770594 L589.566311,136.903407 L608.687404,136.903407 L608.687404,155.594813 L546.490139,155.594813 L546.490139,136.903407 Z M589.566311,67.079188 L607.183498,67.079188 C615.705676,67.079188,621.989793,66.524180,626.036037,65.414149 C630.082281,64.304117,633.394423,62.048280,635.972561,58.646571 C638.550699,55.244861,639.839748,50.679477,639.839748,44.950282 C639.839748,40.080466,638.532795,35.962668,635.918850,32.596766 C633.304904,29.230864,630.082280,27.100351,626.250881,26.205165 C622.419482,25.309978,616.565048,24.862391,608.687404,24.862391 L589.566311,24.862391 Z M790.552639,137.440516 L790.552639,155.594813 L754.888576,155.594813 L754.888576,142.919032 C745.005714,152.515434,733.977179,157.313563,721.802639,157.313563 C712.349467,157.313563,704.131775,154.234167,697.149319,148.075282 C690.166862,141.916397,686.675686,134.038871,686.675686,124.442469 C686.675686,114.774452,690.381703,106.753699,697.793850,100.379969 C705.205996,94.006239,714.139826,90.819422,724.595608,90.819422 C734.335240,90.819422,743.752463,93.755591,752.847561,99.628016 L752.847561,89.315516 C752.847561,84.016010,752.346264,79.934020,751.343654,77.069422 C750.341045,74.204825,747.995691,71.626725,744.307522,69.335047 C740.619352,67.043369,735.803320,65.897547,729.859279,65.897547 C719.618343,65.897547,712.206308,69.979538,707.622951,78.143641 L688.072170,72.987391 C696.737578,56.802414,711.704876,48.710047,732.974514,48.710047 C740.780542,48.710047,747.530149,49.766352,753.223537,51.878993 C758.916925,53.991633,763.160047,56.712960,765.953029,60.043055 C768.746012,63.373150,770.625876,66.971747,771.592678,70.838954 C772.559480,74.706160,773.042873,80.864953,773.042873,89.315516 L773.042873,137.440516 Z M752.847561,116.922938 C744.038923,110.047904,735.122996,106.610438,726.099514,106.610438 C720.441933,106.610438,715.715418,108.257557,711.919826,111.551844 C708.124234,114.846132,706.226467,119.107157,706.226467,124.335047 C706.226467,129.204863,707.891489,133.286854,711.221584,136.581141 C714.551679,139.875428,719.081256,141.522547,724.810451,141.522547 C734.693313,141.522547,744.038923,137.368943,752.847561,129.061610 Z M813.755764,16.268641 C813.755764,12.974354,814.919489,10.109799,817.246975,7.674891 C819.574460,5.239983,822.528532,4.022547,826.109279,4.022547 C829.475182,4.022547,832.375543,5.204176,834.810451,7.567469 C837.245359,9.930762,838.462795,12.831124,838.462795,16.268641 C838.462795,19.706158,837.245359,22.624423,834.810451,25.023524 C832.375543,27.422624,829.475182,28.622157,826.109279,28.622157 C822.671762,28.622157,819.753497,27.404721,817.354397,24.969813 C814.955296,22.534905,813.755764,19.634543,813.755764,16.268641 Z M816.656154,137.440516 L816.656154,69.764735 L800.435451,69.764735 L800.435451,51.610438 L837.066311,51.610438 L837.066311,137.440516 L853.072170,137.440516 L853.072170,155.594813 L800.435451,155.594813 L800.435451,137.440516 Z M880.464748,137.440516 L880.464748,24.325282 L861.988186,24.325282 L861.988186,6.170985 L900.874904,6.170985 L900.874904,137.440516 L916.773342,137.440516 L916.773342,155.594813 L861.988186,155.594813 L861.988186,137.440516 Z M930.845608,155.594813 L930.845608,119.930750 L949.107326,119.930750 L949.107326,123.368250 C949.751861,128.238066,952.383670,132.248443,957.002834,135.399500 C961.621998,138.550558,967.082555,140.126063,973.384670,140.126063 C979.973245,140.126063,985.236864,138.980241,989.175686,136.688563 C993.114508,134.396885,995.083889,131.210068,995.083889,127.128016 C995.083889,123.189194,993.454673,120.288833,990.196194,118.426844 C986.937714,116.564856,980.474562,114.846123,970.806545,113.270594 C956.483557,110.835686,946.260677,106.914827,940.137600,101.507899 C934.014522,96.100971,930.953029,89.100715,930.953029,80.506922 C930.953029,71.841514,934.283074,64.590610,940.943264,58.753993 C947.603453,52.917375,956.376152,49.999110,967.261623,49.999110 C977.072870,49.999110,985.523307,52.004298,992.613186,56.014735 L992.613186,51.610438 L1010.767483,51.610438 L1010.767483,86.092860 L992.613186,86.092860 L992.613186,79.754969 C987.098835,71.232791,979.078082,66.971766,968.550686,66.971766 C963.179565,66.971766,958.757409,68.135491,955.284084,70.462977 C951.810760,72.790463,950.074123,75.887762,950.074123,79.754969 C950.074123,83.693791,951.667532,86.397214,954.854397,87.865321 C958.041262,89.333427,964.898289,90.891029,975.425686,92.538172 C985.523392,94.113701,993.150269,95.957758,998.306545,98.070399 C1003.462821,100.183040,1007.741749,103.692119,1011.143459,108.597743 C1014.545169,113.503366,1016.245998,119.214572,1016.245998,125.731532 C1016.245998,135.399549,1012.539981,143.080136,1005.127834,148.773524 C997.715688,154.466912,988.101526,157.313563,976.285061,157.313563 C965.184745,157.313563,956.125591,154.807078,949.107326,149.794032 L949.107326,155.594813 Z " style="fill: rgba(45, 55, 72, 1.000000); " fill="#3a475a" stroke="none" />
</g></svg>